<svg class="pram" x="0px" y="0px" viewBox="-100 0 850 1000"><g><g class="bubble"><defs><path id="SVGID_1_" d="M362.505,130.338l-24.828,31.922l-24.828-31.922H121.269c-14.44,0-26.144-11.704-26.144-26.143V63.527 c0-14.439,11.704-26.143,26.144-26.143h432.819c14.439,0,26.145,11.704,26.145,26.143v40.668 c0,14.439-11.705,26.143-26.145,26.143H362.505z"></path></defs><clipPath id="SVGID_2_"><use xlink:href="#SVGID_1_" overflow="visible"></use></clipPath><g clip-path="url(#SVGID_2_)"><defs><rect id="SVGID_3_" x="-127.094" y="-16.205" width="929.546" height="1800.994"></rect></defs><clipPath id="SVGID_4_"><use xlink:href="#SVGID_3_" overflow="visible"></use></clipPath><rect x="80.601" y="22.86" opacity="0.5" clip-path="url(#SVGID_4_)" width="514.154" height="153.924"></rect></g><text transform="matrix(1 0 0 1 185.1738 106.3818)" fill="#FFFFFF" font-family="'SFProDisplay-Regular'" font-size="69.7159">&lt;untitled&gt;</text><g><defs><circle id="SVGID_5_" cx="143.85" cy="84.031" r="31.165"></circle></defs><clipPath id="SVGID_6_"><use xlink:href="#SVGID_5_" overflow="visible"></use></clipPath><g clip-path="url(#SVGID_6_)"><defs><rect id="SVGID_7_" x="-127.094" y="-16.205" width="929.546" height="1800.994"></rect></defs><clipPath id="SVGID_8_"><use xlink:href="#SVGID_7_" overflow="visible"></use></clipPath><rect x="98.162" y="38.342" clip-path="url(#SVGID_8_)" fill="#A3BFFA" width="91.376" height="91.378"></rect></g></g><g></g><defs><path id="SVGID_9_" d="M149.661,87.225h-1.084c-1.439,0.582-3.04,0.914-4.726,0.914s-3.281-0.332-4.727-0.914h-1.083 c-4.811,0-8.714,3.436-8.714,7.671v2.372c0,1.512,1.394,2.74,3.112,2.74h22.823c1.719,0,3.114-1.228,3.114-2.74v-2.372 C158.375,90.661,154.472,87.225,149.661,87.225z M143.85,84.031c4.457,0,8.069-3.576,8.069-7.988 c0-4.411-3.612-7.988-8.069-7.988c-4.458,0-8.068,3.577-8.068,7.988C135.782,80.455,139.393,84.031,143.85,84.031z"></path></defs><clipPath id="SVGID_10_"><use xlink:href="#SVGID_9_" overflow="visible"></use></clipPath><g clip-path="url(#SVGID_10_)"><defs><rect id="SVGID_11_" x="-127.094" y="-16.205" width="929.546" height="1800.994"></rect></defs><clipPath id="SVGID_12_"><use xlink:href="#SVGID_11_" overflow="visible"></use></clipPath><rect x="114.802" y="53.531" clip-path="url(#SVGID_12_)" fill="#FFFFFF" width="58.097" height="61.001"></rect></g></g><g><defs><path id="SVGID_13_" d="M166.96,691.742c0,0,29.188,70.36,59.593,93.472l205.533,0.17c0,0,23.113-43.839,27.976-93.642H166.96z"></path></defs><clipPath id="SVGID_14_"><use xlink:href="#SVGID_13_" overflow="visible"></use></clipPath><g clip-path="url(#SVGID_14_)"><defs><rect id="SVGID_15_" x="-127.094" y="-16.205" width="929.546" height="1800.994"></rect></defs><clipPath id="SVGID_16_"><use xlink:href="#SVGID_15_" overflow="visible"></use></clipPath><rect x="152.436" y="677.218" clip-path="url(#SVGID_16_)" fill="#4C51BF" width="322.149" height="122.688"></rect></g></g><g><defs><path id="SVGID_17_" d="M49.974,450.003c0,0,33.068-25.797,37.935-119.441l170.266,119.441H49.974z"></path></defs><clipPath id="SVGID_18_"><use xlink:href="#SVGID_17_" overflow="visible"></use></clipPath><g clip-path="url(#SVGID_18_)"><defs><rect id="SVGID_19_" x="-127.094" y="-16.205" width="929.546" height="1800.994"></rect></defs><clipPath id="SVGID_20_"><use xlink:href="#SVGID_19_" overflow="visible"></use></clipPath><rect x="35.45" y="316.038" clip-path="url(#SVGID_20_)" fill="#4C51BF" width="237.248" height="148.489"></rect></g></g><g><path fill="none" stroke="#434190" stroke-width="1.4524" stroke-miterlimit="10" d="M49.974,450.003 c0,0,33.068-25.797,37.935-119.441l170.266,119.441H49.974z"></path></g><g><defs><path id="SVGID_21_" d="M87.909,330.178c0,0,94.862-55.946,107.021-92.432l63.245,211.876L87.909,330.178z"></path></defs><clipPath id="SVGID_22_"><use xlink:href="#SVGID_21_" overflow="visible"></use></clipPath><g clip-path="url(#SVGID_22_)"><defs><rect id="SVGID_23_" x="-127.094" y="-16.205" width="929.546" height="1800.994"></rect></defs><clipPath id="SVGID_24_"><use xlink:href="#SVGID_23_" overflow="visible"></use></clipPath><rect x="73.384" y="223.222" clip-path="url(#SVGID_24_)" fill="#4C51BF" width="199.314" height="240.925"></rect></g></g><g><path fill="none" stroke="#434190" stroke-width="1.4524" stroke-miterlimit="10" d="M87.909,330.178 c0,0,94.862-55.946,107.021-92.432l63.245,211.876L87.909,330.178z"></path></g><g><defs><path id="SVGID_25_" d="M194.932,237.747c0,0,76.163-3.342,123.278-27.478L258.173,449.62L194.932,237.747z"></path></defs><clipPath id="SVGID_26_"><use xlink:href="#SVGID_25_" overflow="visible"></use></clipPath><g clip-path="url(#SVGID_26_)"><defs><rect id="SVGID_27_" x="-127.094" y="-16.205" width="929.546" height="1800.994"></rect></defs><clipPath id="SVGID_28_"><use xlink:href="#SVGID_27_" overflow="visible"></use></clipPath><rect x="180.408" y="195.745" clip-path="url(#SVGID_28_)" fill="#4C51BF" width="152.327" height="268.399"></rect></g></g><g><path fill="none" stroke="#434190" stroke-width="1.4524" stroke-miterlimit="10" d="M194.932,237.747 c0,0,76.163-3.342,123.278-27.478L258.173,449.62L194.932,237.747z"></path><path fill="none" stroke="#CBD5E0" stroke-width="22.9859" stroke-linecap="round" stroke-linejoin="round" stroke-miterlimit="10" d=" M326.641,210.269L266.604,449.62L326.641,210.269z"></path></g><g><defs><path id="SVGID_29_" d="M64.5,582.173h462.852c8.023,0,14.525-6.502,14.525-14.524V449.62H49.976v118.028 C49.976,575.671,56.479,582.173,64.5,582.173z"></path></defs><clipPath id="SVGID_30_"><use xlink:href="#SVGID_29_" overflow="visible"></use></clipPath><g clip-path="url(#SVGID_30_)"><defs><rect id="SVGID_31_" x="-127.094" y="-16.205" width="929.546" height="1800.994"></rect></defs><clipPath id="SVGID_32_"><use xlink:href="#SVGID_31_" overflow="visible"></use></clipPath><rect x="35.452" y="435.096" clip-path="url(#SVGID_32_)" fill="#4C51BF" width="520.949" height="161.6"></rect></g></g><g><line fill="none" stroke="#CBD5E0" stroke-width="22.9859" stroke-linecap="round" stroke-linejoin="round" stroke-miterlimit="10" x1="49.974" y1="460.348" x2="541.873" y2="460.348"></line><line fill="none" stroke="#CBD5E0" stroke-width="22.9859" stroke-linecap="round" stroke-miterlimit="10" x1="216.647" y1="658.348" x2="482.76" y2="849.439"></line><polyline fill="none" stroke="#CBD5E0" stroke-width="22.9859" stroke-linecap="round" stroke-miterlimit="10" points=" 160.865,875.024 127.36,825.061 127.36,746.118 344.906,532.271 624.787,257.152 		"></polyline><line fill="none" stroke="#CBD5E0" stroke-width="22.9859" stroke-miterlimit="10" x1="344.963" y1="750.735" x2="344.963" y2="532.368"></line><line fill="none" stroke="#2D3748" stroke-width="22.9859" stroke-linecap="round" stroke-miterlimit="10" x1="624.783" y1="257.152" x2="557.447" y2="323.342"></line><g class="wheel frontWheel"><path fill="none" stroke="#2D3748" stroke-width="22.9859" stroke-linecap="round" stroke-linejoin="round" stroke-miterlimit="10" d=" M221.675,874.723c0,33.956-27.529,61.487-61.485,61.487c-33.955,0-61.484-27.531-61.484-61.487 c0-33.955,27.529-61.481,61.484-61.481C194.146,813.241,221.675,840.768,221.675,874.723z"></path><line fill="none" stroke="#2D3748" stroke-width="3.8315" stroke-linecap="round" stroke-linejoin="round" stroke-miterlimit="10" x1="159.924" y1="813.563" x2="159.924" y2="936.157"></line><line fill="none" stroke="#2D3748" stroke-width="3.8315" stroke-linecap="round" stroke-linejoin="round" stroke-miterlimit="10" x1="99.01" y1="875.249" x2="221.603" y2="875.249"></line><line fill="none" stroke="#2D3748" stroke-width="3.8315" stroke-linecap="round" stroke-linejoin="round" stroke-miterlimit="10" x1="116.598" y1="831.897" x2="203.28" y2="918.585"></line><line fill="none" stroke="#2D3748" stroke-width="3.8315" stroke-linecap="round" stroke-linejoin="round" stroke-miterlimit="10" x1="117.138" y1="918.585" x2="203.821" y2="831.895"></line><line fill="none" stroke="#2D3748" stroke-width="3.8315" stroke-linecap="round" stroke-linejoin="round" stroke-miterlimit="10" x1="134.055" y1="819.469" x2="185.863" y2="930.576"></line><line fill="none" stroke="#2D3748" stroke-width="3.8315" stroke-linecap="round" stroke-linejoin="round" stroke-miterlimit="10" x1="104.915" y1="901.117" x2="216.022" y2="849.304"></line><line fill="none" stroke="#2D3748" stroke-width="3.8315" stroke-linecap="round" stroke-linejoin="round" stroke-miterlimit="10" x1="102.534" y1="854.396" x2="217.733" y2="896.326"></line><line fill="none" stroke="#2D3748" stroke-width="3.8315" stroke-linecap="round" stroke-linejoin="round" stroke-miterlimit="10" x1="139.659" y1="932.732" x2="181.59" y2="817.536"></line></g><g class="wheel backWheel"><path fill="none" stroke="#2D3748" stroke-width="22.9859" stroke-linecap="round" stroke-linejoin="round" stroke-miterlimit="10" d=" M569.529,849.439c0,47.922-38.847,86.768-86.769,86.768c-47.923,0-86.771-38.846-86.771-86.768 c0-47.915,38.848-86.769,86.771-86.769C530.683,762.671,569.529,801.524,569.529,849.439z"></path><line fill="none" stroke="#2D3748" stroke-width="3.8315" stroke-linecap="round" stroke-linejoin="round" stroke-miterlimit="10" x1="481.729" y1="769.895" x2="481.729" y2="930.032"></line><line fill="none" stroke="#2D3748" stroke-width="3.8315" stroke-linecap="round" stroke-linejoin="round" stroke-miterlimit="10" x1="402.427" y1="850.729" x2="562.562" y2="850.729"></line><line fill="none" stroke="#2D3748" stroke-width="3.8315" stroke-linecap="round" stroke-linejoin="round" stroke-miterlimit="10" x1="425.385" y1="793.904" x2="538.561" y2="907.082"></line><line fill="none" stroke="#2D3748" stroke-width="3.8315" stroke-linecap="round" stroke-linejoin="round" stroke-miterlimit="10" x1="426.094" y1="907.082" x2="539.272" y2="793.904"></line><line fill="none" stroke="#2D3748" stroke-width="3.8315" stroke-linecap="round" stroke-linejoin="round" stroke-miterlimit="10" x1="447.959" y1="777.721" x2="515.639" y2="922.853"></line><line fill="none" stroke="#2D3748" stroke-width="3.8315" stroke-linecap="round" stroke-linejoin="round" stroke-miterlimit="10" x1="410.254" y1="884.49" x2="555.381" y2="816.816"></line><line fill="none" stroke="#2D3748" stroke-width="3.8315" stroke-linecap="round" stroke-linejoin="round" stroke-miterlimit="10" x1="407.046" y1="823.29" x2="557.447" y2="878.034"></line><line fill="none" stroke="#2D3748" stroke-width="3.8315" stroke-linecap="round" stroke-linejoin="round" stroke-miterlimit="10" x1="455.518" y1="931.379" x2="510.26" y2="780.976"></line></g></g></g><g><defs><circle id="SVGID_33_" cx="625.408" cy="256.403" r="14.839"></circle></defs><clipPath id="SVGID_34_"><use xlink:href="#SVGID_33_" overflow="visible"></use></clipPath><g clip-path="url(#SVGID_34_)"><defs><rect id="SVGID_35_" x="-88.214" y="-6.338" width="886.341" height="1717.285"></rect></defs><clipPath id="SVGID_36_"><use xlink:href="#SVGID_35_" overflow="visible"></use></clipPath><rect x="596.72" y="227.714" clip-path="url(#SVGID_36_)" fill="#2D3748" width="57.376" height="57.377"></rect></g></g></svg>